<svg xmlns="http://www.w3.org/2000/svg" version="1.1" xmlns:xlink="http://www.w3.org/1999/xlink" xmlns:svgjs="http://svgjs.dev/svgjs" width="2000" height="636" viewBox="0 0 2000 636"><g transform="matrix(1,0,0,1,1.6937089222790291,3.572276008997278)"><svg viewBox="0 0 396 126" data-background-color="#ffffff" preserveAspectRatio="xMidYMid meet" height="636" width="2000" xmlns="http://www.w3.org/2000/svg" xmlns:xlink="http://www.w3.org/1999/xlink"><g id="tight-bounds" transform="matrix(1,0,0,1,0.2400000000000091,0.11874402316811938)"><svg viewBox="0 0 395.52 125.76251195366373" height="125.76251195366373" width="395.52"><g><svg viewBox="0 0 632.14004527272 200.99999999999997" height="125.76251195366373" width="395.52"><g><rect width="8.362241149090911" height="200.99999999999997" x="221.88712048726543" y="0" fill="#ffffff" opacity="1" stroke-width="0" stroke="transparent" fill-opacity="1" class="rect-yte-0" data-fill-palette-color="primary" rx="1%" id="yte-0" data-palette-color="#919591"></rect></g><g transform="matrix(1,0,0,1,252.14004527272,0.4999999999999858)"><svg viewBox="0 0 380.00000000000006 200" height="200" width="380.00000000000006"><g id="textblocktransform"><svg viewBox="0 0 380.00000000000006 200" height="200" width="380.00000000000006" id="textblock"><g><svg viewBox="0 0 380.00000000000006 200" height="200" width="380.00000000000006"><g transform="matrix(1,0,0,1,0,0)"><svg width="380.00000000000006" viewBox="-1.3500000000000005 -37.35000000000001 156.75 79.5" height="200" data-palette-color="#919591"><svg></svg><svg></svg><g class="wordmark-text-0" data-fill-palette-color="primary" id="text-0"><path d="M18.7-12.2c-1.333-0.033-3.217-0.05-5.65-0.05-2.433 0-4.283 0.017-5.55 0.05v0c-0.933 3.733-1.507 6.207-1.72 7.42-0.22 1.22-0.33 2.53-0.33 3.93v0 0.85h-6.8v-0.5c1.5-1.167 3.507-5.793 6.02-13.88 2.52-8.08 4.157-13.37 4.91-15.87 0.747-2.5 1.153-4.1 1.22-4.8v0l5.85-0.6c0 1.167 1.05 4.807 3.15 10.92 2.1 6.12 3.793 10.847 5.08 14.18 1.28 3.333 2.27 5.65 2.97 6.95 0.7 1.3 1.483 2.333 2.35 3.1v0 0.5h-8.4v-0.85c0-1.2-0.157-2.317-0.47-3.35-0.32-1.033-0.53-1.7-0.63-2v0zM12.9-31.3v0c-0.667 1.767-2.267 7.183-4.8 16.25v0h9.75c-0.6-1.833-1.483-4.717-2.65-8.65-1.167-3.933-1.933-6.467-2.3-7.6zM39.05-0.6v0.6h-6.45v-0.6c0.567-1.667 0.85-4.3 0.85-7.9v0-20.85c0-2.667-0.767-4.733-2.3-6.2v0-0.6l6.85-1.2 0.3 0.5c-0.1 0.967-0.15 4.167-0.15 9.6v0l0.05 18.75c0 3.6 0.283 6.233 0.85 7.9zM51.4-18v13.6c2.2 1.133 4.267 1.7 6.2 1.7 1.933 0 3.25-0.2 3.95-0.6v0c0.567-0.667 1.067-1.933 1.5-3.8 0.433-1.867 0.65-3.667 0.65-5.4v0c0-5.567-1.733-8.35-5.2-8.35v0c-1.933 0-4.3 0.95-7.1 2.85zM51.4-32.7v0 11.85c2.767-2.467 5.523-3.7 8.27-3.7 2.753 0 5.007 1.083 6.76 3.25 1.747 2.167 2.62 4.8 2.62 7.9v0c0 3.9-1.183 7.2-3.55 9.9-2.367 2.7-5.09 4.05-8.17 4.05-3.087 0-6.813-0.7-11.18-2.1v0-0.3c0.367-1 0.55-3.283 0.55-6.85v0-20.65c0-2.633-0.783-4.7-2.35-6.2v0-0.6l6.9-1.2 0.3 0.5c-0.1 0.967-0.15 2.35-0.15 4.15zM84.6 0.55v0c-3.5 0-6.233-1.083-8.2-3.25-1.967-2.167-2.95-5.027-2.95-8.58 0-3.547 1.1-6.653 3.3-9.32 2.2-2.667 4.933-4 8.2-4v0c5.967 0 8.95 3.683 8.95 11.05v0l-1.85 1.8h-13.3c0 2.8 0.6 4.9 1.8 6.3 1.2 1.4 2.817 2.1 4.85 2.1v0c0.8 0 1.933-0.243 3.4-0.73 1.467-0.48 2.767-1.053 3.9-1.72v0l1.25 1.9c-0.633 0.633-2.007 1.533-4.12 2.7-2.12 1.167-3.863 1.75-5.23 1.75zM84.05-22.1v0c-1.4 0-2.483 0.317-3.25 0.95v0c-0.633 0.867-1.133 1.967-1.5 3.3-0.367 1.333-0.55 2.5-0.55 3.5v0l10.25-0.4c0-4.9-1.65-7.35-4.95-7.35zM112.85-24.6v0c1.033 0 1.8 0.117 2.3 0.35v0c0 0.2 0 0.4 0 0.6v0c0 1.967-0.3 3.75-0.9 5.35v0c-1.5-0.967-3.2-1.45-5.1-1.45v0c-1.033 0-2.067 0.183-3.1 0.55v0 10.7c0 3.233 0.483 5.95 1.45 8.15v0 0.35h-7v-0.35c0.567-1.667 0.85-3.883 0.85-6.65v0-8.5c0-1.433-0.29-2.843-0.87-4.23-0.587-1.38-1.263-2.303-2.03-2.77v0l-0.05-0.6 5.9-1.55c0.533 0.9 0.967 1.95 1.3 3.15v0c2-2.067 4.417-3.1 7.25-3.1zM126.3-21.2v15.6c0 1.767 0.533 2.65 1.6 2.65v0c0.9 0 2.417-0.533 4.55-1.6v0l1.05 1.75c-1.067 0.733-2.4 1.473-4 2.22-1.6 0.753-3.067 1.13-4.4 1.13-1.333 0-2.25-0.417-2.75-1.25-0.5-0.833-0.75-2.033-0.75-3.6v0-16.85l-4.5 0.25 1.2-3.25c0.6 0.067 1.667 0.133 3.2 0.2v0c-0.067-1.667-0.167-3.167-0.3-4.5v0l5.1-1.3v5.75c1.8-0.067 4.25-0.267 7.35-0.6v0l-1.4 3.9c-1.8-0.267-3.783-0.433-5.95-0.5zM142.7-21.45v0c-0.6 0.6-0.9 1.423-0.9 2.47 0 1.053 0.333 1.87 1 2.45 0.667 0.587 1.51 1.013 2.53 1.28 1.013 0.267 2.103 0.6 3.27 1 1.167 0.4 2.26 0.823 3.28 1.27 1.013 0.453 1.853 1.18 2.52 2.18 0.667 1 1 2.217 1 3.65v0c0 2.533-0.933 4.45-2.8 5.75-1.867 1.3-4.327 1.95-7.38 1.95-3.047 0-5.753-0.783-8.12-2.35v0c0.1-1.7 0.6-3.217 1.5-4.55v0c3 2.733 5.733 4.1 8.2 4.1v0c1.067 0 2.017-0.217 2.85-0.65v0c0.8-0.7 1.2-1.643 1.2-2.83 0-1.18-0.46-2.093-1.38-2.74-0.913-0.653-2.02-1.163-3.32-1.53-1.3-0.367-2.6-0.783-3.9-1.25-1.3-0.467-2.407-1.2-3.32-2.2-0.92-1-1.38-2.3-1.38-3.9v0c0-2.333 0.877-4.127 2.63-5.38 1.747-1.247 3.953-1.87 6.62-1.87 2.667 0 5.283 0.567 7.85 1.7v0c-0.3 1.467-0.883 2.933-1.75 4.4v0c-2.367-2.367-4.833-3.55-7.4-3.55v0c-1.1 0-2.033 0.2-2.8 0.6z" fill="#ffffff" fill-rule="nonzero" stroke="none" stroke-width="1" stroke-linecap="butt" stroke-linejoin="miter" stroke-miterlimit="10" stroke-dasharray="" stroke-dashoffset="0" font-family="none" font-weight="none" font-size="none" text-anchor="none" style="mix-blend-mode: normal" data-fill-palette-color="primary" opacity="1"></path><path transform="translate(0,41.25)" d="M1.55-16.15h0.35c1.333 0.3 2.833 0.45 4.5 0.45v0l4.3-0.05c0.733 0 1.877-0.033 3.43-0.1 1.547-0.067 2.72-0.1 3.52-0.1v0l-1.5 3.9h-0.35c-2.267-0.3-5.283-0.45-9.05-0.45v0l-6.7 0.3zM28.8-30.7h-0.35c0-1.5-0.083-2.983-0.25-4.45v0c6.7 0.1 11.01 0.15 12.93 0.15 1.913 0 6.22-0.05 12.92-0.15v0c-0.233 2.033-0.35 3.517-0.35 4.45v0h-0.35c-3.7-0.933-6.85-1.433-9.45-1.5v0c-0.167 1.733-0.25 4.417-0.25 8.05v0 13.75c0 4.5 0.25 7.85 0.75 10.05v0 0.35h-6.55v-0.35c0.433-2.167 0.65-5.45 0.65-9.85v0-13.75c0-3.767-0.083-6.517-0.25-8.25v0c-2.533 0.067-5.683 0.567-9.45 1.5zM63.35 0.6c-3.5 0-6.267-1.11-8.3-3.33-2.033-2.213-3.05-5.113-3.05-8.7 0-3.58 1.183-6.67 3.55-9.27 2.367-2.6 5.34-3.9 8.92-3.9 3.587 0 6.357 1.083 8.31 3.25 1.947 2.167 2.92 5.067 2.92 8.7 0 3.633-1.183 6.75-3.55 9.35-2.367 2.6-5.3 3.9-8.8 3.9zM70.4-11.4v0c0-3.3-0.517-5.85-1.55-7.65-1.033-1.8-2.867-2.7-5.5-2.7v0c-1.7 0-3.033 0.367-4 1.1v0c-0.6 0.767-1.09 1.933-1.47 3.5-0.387 1.567-0.58 3.067-0.58 4.5v0c0 6.967 2.467 10.45 7.4 10.45v0c1.533 0 2.783-0.35 3.75-1.05v0c0.633-0.767 1.117-1.95 1.45-3.55 0.333-1.6 0.5-3.133 0.5-4.6zM90.65 0.55v0c-3.467 0-6.05-1.177-7.75-3.53-1.7-2.347-2.55-5.303-2.55-8.87 0-3.567 1.093-6.583 3.28-9.05 2.18-2.467 4.937-3.7 8.27-3.7v0c1.867 0 3.717 0.317 5.55 0.95v0-5.7c0-2.667-0.767-4.733-2.3-6.2v0-0.6l6.85-1.2 0.3 0.5c-0.1 0.967-0.15 2.35-0.15 4.15v0 24.75c0 1.5 0.233 2.923 0.7 4.27 0.467 1.353 1.067 2.28 1.8 2.78v0l0.1 0.5-5.45 1.3c-0.333-0.833-0.75-2.2-1.25-4.1v0c-2.567 2.5-5.033 3.75-7.4 3.75zM88.3-4.65v0c0.967 1 2.283 1.5 3.95 1.5 1.667 0 3.4-0.8 5.2-2.4v0-14.1c-1.733-1.267-3.9-1.9-6.5-1.9v0c-1.5 0-2.65 0.3-3.45 0.9v0c-1.233 1.967-1.85 4.683-1.85 8.15 0 3.467 0.883 6.083 2.65 7.85zM120 0.6c-3.5 0-6.267-1.11-8.3-3.33-2.033-2.213-3.05-5.113-3.05-8.7 0-3.58 1.183-6.67 3.55-9.27 2.367-2.6 5.343-3.9 8.93-3.9 3.58 0 6.347 1.083 8.3 3.25 1.947 2.167 2.92 5.067 2.92 8.7 0 3.633-1.183 6.75-3.55 9.35-2.367 2.6-5.3 3.9-8.8 3.9zM127.05-11.4v0c0-3.3-0.517-5.85-1.55-7.65-1.033-1.8-2.867-2.7-5.5-2.7v0c-1.7 0-3.033 0.367-4 1.1v0c-0.6 0.767-1.09 1.933-1.47 3.5-0.387 1.567-0.58 3.067-0.58 4.5v0c0 6.967 2.467 10.45 7.4 10.45v0c1.533 0 2.783-0.35 3.75-1.05v0c0.633-0.767 1.117-1.95 1.45-3.55 0.333-1.6 0.5-3.133 0.5-4.6z" fill="#ffffff" fill-rule="nonzero" stroke="none" stroke-width="1" stroke-linecap="butt" stroke-linejoin="miter" stroke-miterlimit="10" stroke-dasharray="" stroke-dashoffset="0" font-family="none" font-weight="none" font-size="none" text-anchor="none" style="mix-blend-mode: normal" data-fill-palette-color="primary" opacity="1"></path></g></svg></g></svg></g></svg></g></svg></g><g transform="matrix(1,0,0,1,0,0.4999999999999858)"><svg viewBox="0 0 199.9964368509018 200" height="200" width="199.9964368509018"><g><svg xmlns="http://www.w3.org/2000/svg" xmlns:xlink="http://www.w3.org/1999/xlink" version="1.1" x="0" y="0" viewBox="3 2.998396554339227 90 90.00160344566078" enable-background="new 0 0 96 96" xml:space="preserve" height="200" width="199.9964368509018" class="icon-icon-0" data-fill-palette-color="accent" id="icon-0"><path d="M34.1 35.428L30.896 37.949C30.956 38.288 31 38.64 31 39V42.956L36.572 38.572A2.01 2.01 0 0 0 36.908 35.759 2 2 0 0 0 34.1 35.428" fill="#ffffff" data-fill-palette-color="accent"></path><path d="M25 37H5C3.896 37 3 37.9 3 39V59A2 2 0 0 0 5 61H25A2 2 0 0 0 27 59V46.104L16.236 54.576A2.02 2.02 0 0 1 15 55 2 2 0 0 1 13.204 53.872L9.372 46.04A2 2 0 0 1 10.288 43.364 2.01 2.01 0 0 1 12.964 44.28L15.708 49.892 27 41.004V39C27 37.9 26.104 37 25 37" fill="#ffffff" data-fill-palette-color="accent"></path><path d="M25 69H5C3.896 69 3 69.9 3 71V91A2 2 0 0 0 5 93H25A2 2 0 0 0 27 91V71C27 69.9 26.104 69 25 69" fill="#ffffff" data-fill-palette-color="accent"></path><path d="M91 73H47A2 2 0 0 0 47 77H91C92.1 77 93 76.104 93 75 93 73.9 92.1 73 91 73" fill="#ffffff" data-fill-palette-color="accent"></path><path d="M91 85H47A2 2 0 0 0 47 89H91C92.1 89 93 88.104 93 87 93 85.9 92.1 85 91 85" fill="#ffffff" data-fill-palette-color="accent"></path><path d="M91 41H47A2 2 0 0 0 47 45H91C92.1 45 93 44.104 93 43 93 41.9 92.1 41 91 41" fill="#ffffff" data-fill-palette-color="accent"></path><path d="M91 53H47A2 2 0 0 0 47 57H91C92.1 57 93 56.104 93 55 93 53.9 92.1 53 91 53" fill="#ffffff" data-fill-palette-color="accent"></path><path d="M47 13H91C92.1 13 93 12.104 93 11 93 9.9 92.1 9 91 9H47A2 2 0 0 0 47 13" fill="#ffffff" data-fill-palette-color="accent"></path><path d="M91 21H47A2 2 0 0 0 47 25H91C92.1 25 93 24.104 93 23 93 21.9 92.1 21 91 21" fill="#ffffff" data-fill-palette-color="accent"></path><path d="M34.1 3.428L30.896 5.949C30.956 6.288 31 6.64 31 7V10.956L36.572 6.572A2.01 2.01 0 0 0 36.908 3.759 2 2 0 0 0 34.1 3.428" fill="#ffffff" data-fill-palette-color="accent"></path><path d="M25 5H5C3.896 5 3 5.9 3 7V27A2 2 0 0 0 5 29H25A2 2 0 0 0 27 27V14.104L16.236 22.58A2.04 2.04 0 0 1 15 23 2 2 0 0 1 13.204 21.876L9.372 14.044A2 2 0 0 1 10.288 11.368 2.01 2.01 0 0 1 12.964 12.284L15.708 17.896 27 9.012V7C27 5.9 26.104 5 25 5" fill="#ffffff" data-fill-palette-color="accent"></path></svg></g></svg></g></svg></g><defs></defs></svg><rect width="395.52" height="125.76251195366373" fill="none" stroke="none" visibility="hidden"></rect></g></svg></g></svg>